<svg xmlns="http://www.w3.org/2000/svg" version="1.1" viewBox="-5.0 -10.0 110.0 135.0">
 <path d="m73.398 21.898v-0.60156l-46.797 0.003906v0.60156l-12.801-3.1992v61.398l12.801-4.1016v1h46.898v-1l12.801 4.1016v-61.402zm-53.098 54.301-4.6992 1.5v-15l4.6992-0.60156zm0-16-4.6992 0.60156v-22.699l4.6992 0.60156zm0-23.301-4.6992-0.60156v-15.195l4.6992 1.1992zm6.0977 37.301-4.1992 1.3008v-13.699l4.1992-0.60156zm0-14.801-4.1992 0.60156v-21l4.1992 0.60156zm0-21.699-4.1992-0.60156v-14.398l4.1992 1.1016zm44.5 36.902h-41.797v-50.703h41.801zm7 1-4.1992-1.3008v-13l4.1992 0.60156zm0-15.703-4.1992-0.60156v-19.695l4.1992-0.60156zm0-22.797-4.1992 0.60156v-13.902l4.1992-1.1016zm6.5 40.5-4.6992-1.5v-14.102l4.6992 0.60156zm0-16.801-4.6992-0.60156v-21.5l4.6992-0.60156zm0-24.5-4.6992 0.60156v-14.602l4.6992-1.1992z"/>
 <path d="m25.199 77.602h49.5v3.6016h-49.5z"/>
<text x="0.0" y="117.5" font-size="5.0" font-weight="bold" font-family="Arbeit Regular, Helvetica, Arial-Unicode, Arial, Sans-serif" fill="#000000">Created by Marco Livolsi</text><text x="0.0" y="122.5" font-size="5.0" font-weight="bold" font-family="Arbeit Regular, Helvetica, Arial-Unicode, Arial, Sans-serif" fill="#000000">from Noun Project</text></svg>